<?xml version="1.0" encoding="UTF-8"?>
<svg id="Calque_1" data-name="Calque 1" xmlns="http://www.w3.org/2000/svg" viewBox="0 0 79.34 83.33">
  <defs>
    <style>
      .cls-1 {
        fill-rule: evenodd;
      }
    </style>
  </defs>
  <path class="cls-1" d="M73.09,0H6.25C2.8,0,0,2.8,0,6.25v58.33c0,3.46,2.8,6.25,6.25,6.25h22.52c.91,0,1.75.46,2.26,1.21l6.91,10.37c.38.58,1.03.92,1.73.92s1.35-.34,1.73-.92l6.91-10.37c.51-.75,1.35-1.21,2.26-1.21h22.52c3.45,0,6.25-2.79,6.25-6.25V6.25c0-3.45-2.8-6.25-6.25-6.25ZM39.65,62.83c-4.19,0-7.59-3.39-7.59-7.58s3.4-7.59,7.59-7.59,7.59,3.4,7.59,7.59-3.4,7.58-7.59,7.58ZM47.68,16.08l-1.39,20.83c-.22,3.29-2.94,5.84-6.23,5.84h-.58c-3.26,0-5.98-2.52-6.23-5.78l-1.58-20.83c-.23-2.97,1.69-5.89,5.02-6.62.39-.09.8-.11,1.2-.11h3.55c1.74,0,3.39.72,4.57,1.98,1.18,1.27,1.78,2.97,1.67,4.69Z"/>
</svg>